999
"DXF R12 Output" (www.mydxf.blogspot.com)
 0 
SECTION
 2 
HEADER
 9 
$ACADVER
 1 
AC1009
 9 
$EXTMIN
 10 
 0 
 20 
 0 
 9 
$EXTMAX
 10 
 8.5 
 20 
 11 
 0 
ENDSEC
 0 
SECTION
 2 
ENTITIES
0
LINE
8
Layer 1
10
0.793749
20
297.794000
11
-0.793749
21
296.206000
0
LINE
8
Layer 1
10
0.000000
20
298.323000
11
0.000000
21
295.677000
0
LINE
8
Layer 1
10
2.116660
20
295.942000
11
1.058330
21
294.883670
0
LINE
8
Layer 1
10
1.587500
20
296.471000
11
0.529170
21
295.412670
0
LINE
8
Layer 1
10
1.058330
20
297.000000
11
0.000000
21
295.941670
0
LINE
8
0
10
95.436300
20
280.697000
11
105.436000
21
280.697000
0
LINE
8
0
10
105.436000
20
280.697000
11
105.436000
21
290.696000
0
LINE
8
0
10
105.436000
20
290.696000
11
95.436300
21
290.696000
0
LINE
8
0
10
95.436300
20
290.696000
11
95.436300
21
280.697000
0
LINE
8
0
10
85.436300
20
280.697000
11
95.436300
21
280.697000
0
LINE
8
0
10
95.436300
20
280.697000
11
95.436300
21
290.696000
0
LINE
8
0
10
95.436300
20
290.696000
11
85.436300
21
290.696000
0
LINE
8
0
10
85.436300
20
290.696000
11
85.436300
21
280.697000
0
LINE
8
0
10
75.436300
20
280.697000
11
85.436300
21
280.697000
0
LINE
8
0
10
85.436300
20
280.697000
11
85.436300
21
290.696000
0
LINE
8
0
10
85.436300
20
290.696000
11
75.436300
21
290.696000
0
LINE
8
0
10
75.436300
20
290.696000
11
75.436300
21
280.697000
0
LINE
8
0
10
65.436300
20
280.697000
11
75.436300
21
280.697000
0
LINE
8
0
10
75.436300
20
280.697000
11
75.436300
21
290.696000
0
LINE
8
0
10
75.436300
20
290.696000
11
65.436300
21
290.696000
0
LINE
8
0
10
65.436300
20
290.696000
11
65.436300
21
280.697000
0
LINE
8
0
10
55.436300
20
280.697000
11
65.436300
21
280.697000
0
LINE
8
0
10
65.436300
20
280.697000
11
65.436300
21
290.696000
0
LINE
8
0
10
65.436300
20
290.696000
11
55.436300
21
290.696000
0
LINE
8
0
10
55.436300
20
290.696000
11
55.436300
21
280.697000
0
LINE
8
0
10
45.436300
20
280.697000
11
55.436300
21
280.697000
0
LINE
8
0
10
55.436300
20
280.697000
11
55.436300
21
290.696000
0
LINE
8
0
10
55.436300
20
290.696000
11
45.436300
21
290.696000
0
LINE
8
0
10
45.436300
20
290.696000
11
45.436300
21
280.697000
0
LINE
8
0
10
35.436300
20
280.697000
11
45.436300
21
280.697000
0
LINE
8
0
10
45.436300
20
280.697000
11
45.436300
21
290.696000
0
LINE
8
0
10
45.436300
20
290.696000
11
35.436300
21
290.696000
0
LINE
8
0
10
35.436300
20
290.696000
11
35.436300
21
280.697000
0
LINE
8
0
10
25.436300
20
280.697000
11
35.436300
21
280.697000
0
LINE
8
0
10
35.436300
20
280.697000
11
35.436300
21
290.696000
0
LINE
8
0
10
35.436300
20
290.696000
11
25.436300
21
290.696000
0
LINE
8
0
10
25.436300
20
290.696000
11
25.436300
21
280.697000
0
LINE
8
0
10
15.436400
20
280.697000
11
25.436300
21
280.697000
0
LINE
8
0
10
25.436300
20
280.697000
11
25.436300
21
290.696000
0
LINE
8
0
10
25.436300
20
290.696000
11
15.436400
21
290.696000
0
LINE
8
0
10
15.436400
20
290.696000
11
15.436400
21
280.697000
0
LINE
8
0
10
5.436370
20
280.697000
11
15.436400
21
280.697000
0
LINE
8
0
10
15.436400
20
280.697000
11
15.436400
21
290.696000
0
LINE
8
0
10
15.436400
20
290.696000
11
5.436370
21
290.696000
0
LINE
8
0
10
5.436370
20
290.696000
11
5.436370
21
280.697000
 0 
ENDSEC
 0 
EOF